HIERARCHY
ROOT Hips
{
	OFFSET 0.00000 0.00000 0.00000
	CHANNELS 6 Xposition Yposition Zposition Zrotation Yrotation Xrotation 
	JOINT LHipJoint
	{
		OFFSET 0 0 0
		CHANNELS 3 Zrotation Yrotation Xrotation
		JOINT LeftUpLeg
		{
			OFFSET 1.37959 -1.78713 0.86582
			CHANNELS 3 Zrotation Yrotation Xrotation
			JOINT LeftLeg
			{
				OFFSET 2.54611 -6.99539 0.00000
				CHANNELS 3 Zrotation Yrotation Xrotation
				JOINT LeftFoot
				{
					OFFSET 2.59951 -7.14211 0.00000
					CHANNELS 3 Zrotation Yrotation Xrotation
					JOINT LeftToeBase
					{
						OFFSET 0.18493 -0.50810 1.96120
						CHANNELS 3 Zrotation Yrotation Xrotation
						End Site
						{
							OFFSET 0.00000 -0.00000 1.02054
						}
					}
				}
			}
		}
	}
	JOINT RHipJoint
	{
		OFFSET 0 0 0
		CHANNELS 3 Zrotation Yrotation Xrotation
		JOINT RightUpLeg
		{
			OFFSET -1.33564 -1.78713 0.86582
			CHANNELS 3 Zrotation Yrotation Xrotation
			JOINT RightLeg
			{
				OFFSET -2.52705 -6.94302 0.00000
				CHANNELS 3 Zrotation Yrotation Xrotation
				JOINT RightFoot
				{
					OFFSET -2.55964 -7.03257 0.00000
					CHANNELS 3 Zrotation Yrotation Xrotation
					JOINT RightToeBase
					{
						OFFSET -0.25804 -0.70896 2.12109
						CHANNELS 3 Zrotation Yrotation Xrotation
						End Site
						{
							OFFSET -0.00000 -0.00000 1.11821
						}
					}
				}
			}
		}
	}
	JOINT LowerBack
	{
		OFFSET 0 0 0
		CHANNELS 3 Zrotation Yrotation Xrotation
		JOINT Spine
		{
			OFFSET -0.02031 2.24248 -0.18900
			CHANNELS 3 Zrotation Yrotation Xrotation
			JOINT Spine1
			{
				OFFSET 0.08342 2.24689 -0.03799
				CHANNELS 3 Zrotation Yrotation Xrotation
				JOINT Neck
				{
					OFFSET 0 0 0
					CHANNELS 3 Zrotation Yrotation Xrotation
					JOINT Neck1
					{
						OFFSET -0.11607 1.55844 0.24628
						CHANNELS 3 Zrotation Yrotation Xrotation
						JOINT Head
						{
							OFFSET 0.06877 1.60174 -0.17013
							CHANNELS 3 Zrotation Yrotation Xrotation
							End Site
							{
								OFFSET 0.03358 1.61266 -0.08543
							}
						}
					}
				}
				JOINT LeftShoulder
				{
					OFFSET 0 0 0
					CHANNELS 3 Zrotation Yrotation Xrotation
					JOINT LeftArm
					{
						OFFSET 3.47537 0.55866 -0.72348
						CHANNELS 3 Zrotation Yrotation Xrotation
						JOINT LeftForeArm
						{
							OFFSET 5.38154 -0.00000 0.00000
							CHANNELS 3 Zrotation Yrotation Xrotation
							JOINT LeftHand
							{
								OFFSET 3.33312 -0.00000 0.00000
								CHANNELS 3 Zrotation Yrotation Xrotation
								JOINT LeftFingerBase
								{
									OFFSET 0 0 0
									CHANNELS 3 Zrotation Yrotation Xrotation
									JOINT LeftHandIndex1
									{
										OFFSET 0.71079 -0.00000 0.00000
										CHANNELS 3 Zrotation Yrotation Xrotation
										End Site
										{
											OFFSET 0.57306 -0.00000 0.00000
										}
									}
								}
								JOINT LThumb
								{
									OFFSET 0 0 0
									CHANNELS 3 Zrotation Yrotation Xrotation
									End Site
									{
										OFFSET 0.58181 -0.00000 0.58181
									}
								}
							}
						}
					}
				}
				JOINT RightShoulder
				{
					OFFSET 0 0 0
					CHANNELS 3 Zrotation Yrotation Xrotation
					JOINT RightArm
					{
						OFFSET -3.27844 0.90739 -0.35708
						CHANNELS 3 Zrotation Yrotation Xrotation
						JOINT RightForeArm
						{
							OFFSET -5.16954 -0.00000 0.00000
							CHANNELS 3 Zrotation Yrotation Xrotation
							JOINT RightHand
							{
								OFFSET -3.38287 -0.00000 0.00000
								CHANNELS 3 Zrotation Yrotation Xrotation
								JOINT RightFingerBase
								{
									OFFSET 0 0 0
									CHANNELS 3 Zrotation Yrotation Xrotation
									JOINT RightHandIndex1
									{
										OFFSET -0.81797 -0.00000 0.00000
										CHANNELS 3 Zrotation Yrotation Xrotation
										End Site
										{
											OFFSET -0.65947 -0.00000 0.00000
										}
									}
								}
								JOINT RThumb
								{
									OFFSET 0 0 0
									CHANNELS 3 Zrotation Yrotation Xrotation
									End Site
									{
										OFFSET -0.66953 -0.00000 0.66953
									}
								}
							}
						}
					}
				}
			}
		}
	}
}
MOTION
Frames: 6
Frame Time: .0083333
10.9207 15.4566 14.2362 273.0420 -73.9403 -264.7180 0.0000 0.0000 0.0000 14.5716 4.3309 -49.7622 18.0535 19.9089 84.3007 0.8866 -18.1058 -19.7253 1.1785 -6.8901 -19.3902 0.0000 0.0000 0.0000 8.5252 -1.5801 -18.6552 -3.7788 -11.8601 35.2388 -1.0382 7.4297 -18.2056 -4.1305 12.3321 -36.9170 -0.8530 0.3773 22.6840 3.3300 -0.2535 8.8720 4.1499 -0.5140 -2.9276 -16.9260 -11.1579 -7.5414 13.6584 -17.2998 25.7127 5.3930 -8.3034 12.4867 0.0000 -0.0000 0.0000 -67.5156 5.9949 -22.8886 17.9618 -28.1082 -4.5312 -0.0000 -0.0000 5.3222 13.7324 32.5905 7.4986 -7.1250 0.0000 -0.0000 -22.1361 61.9695 -9.3867 0.0000 -0.0000 0.0000 44.0021 -4.0992 -46.1927 -17.3652 27.3368 -4.2537 0.0000 -0.0000 -65.2022 -6.5616 -4.8680 0.5593 7.1250 -0.0000 -0.0000 16.4848 -34.4888 4.4070
10.9057 15.4527 14.2752 273.1370 -73.8740 -264.6690 0.0000 0.0000 0.0000 14.4891 4.4802 -50.0593 18.1267 19.9157 84.5155 0.8681 -18.0890 -19.5892 1.1821 -6.9002 -19.4201 0.0000 0.0000 0.0000 8.5298 -1.6814 -18.6084 -3.7083 -11.7618 34.8943 -1.0351 7.0688 -18.1662 -4.3252 12.5810 -37.8195 -1.0032 0.4073 22.4280 3.2400 -0.2317 8.7844 4.1286 -0.4959 -2.8975 -17.1491 -10.9552 -7.7792 14.1445 -17.1439 25.9947 5.6468 -8.2086 12.6982 0.0000 0.0000 0.0000 -67.1990 5.8922 -22.9889 18.0441 -28.2136 -4.5701 -0.0000 -0.0000 5.3484 13.6876 32.2921 7.4131 -7.1250 0.0000 -0.0000 -21.9195 61.6852 -9.1423 0.0000 0.0000 0.0000 44.2773 -4.0337 -46.6717 -17.0881 26.9738 -4.1272 0.0000 -0.0000 -64.1704 -3.9705 -4.5915 0.3183 7.1250 -0.0000 -0.0000 18.4836 -34.0959 5.1745
10.8791 15.4533 14.3130 274.1380 -74.0166 -265.7640 0.0000 0.0000 0.0000 14.1581 4.4043 -50.1333 18.1787 19.9203 84.6681 0.8700 -18.2268 -19.6615 1.1466 -6.7995 -19.1226 0.0000 0.0000 0.0000 8.3176 -2.3813 -18.2921 -3.6224 -11.6402 34.4707 -1.0266 7.0296 -18.0902 -4.4987 12.7959 -38.6094 -1.3724 0.4140 22.3089 3.1726 -0.2910 8.7659 4.2798 -0.5265 -2.8520 -16.8567 -10.8533 -7.8645 14.1389 -17.0433 26.0311 5.6145 -8.1373 12.6775 -0.0000 -0.0000 0.0000 -66.9351 5.8458 -22.9053 18.1589 -28.3601 -4.6245 -0.0000 -0.0000 5.0958 13.4330 31.8964 7.1928 -7.1250 0.0000 -0.0000 -21.8484 61.2595 -8.8901 -0.0000 -0.0000 0.0000 44.6135 -4.2252 -46.5261 -17.1955 27.1147 -4.1760 0.0000 -0.0000 -64.6331 -5.1492 -4.9310 0.4438 7.1250 -0.0000 -0.0000 17.6237 -34.4788 4.7409
10.8514 15.4496 14.3582 275.6100 -73.9292 -267.5020 0.0000 0.0000 0.0000 14.0311 4.2571 -50.1267 18.2311 19.9248 84.8218 0.9061 -18.4306 -19.9962 1.2962 -7.2133 -20.3487 0.0000 0.0000 0.0000 8.2693 -3.1322 -17.6454 -3.5156 -11.4863 33.9381 -1.0025 7.1087 -17.8790 -4.4895 12.7847 -38.5678 -1.3702 0.3811 22.4668 3.1188 -0.3303 8.7324 4.2338 -0.5408 -2.9645 -16.1991 -10.8479 -7.8106 13.7212 -17.0386 26.0608 5.3487 -8.1163 12.5589 0.0000 -0.0000 0.0000 -66.5587 5.8444 -22.4841 18.3312 -28.5791 -4.7066 -0.0000 -0.0000 4.7599 13.4594 32.0370 7.2353 -7.1250 0.0000 -0.0000 -21.9410 61.3949 -9.0005 0.0000 -0.0000 0.0000 45.1391 -4.7548 -46.0923 -17.4911 27.5006 -4.3117 0.0000 -0.0000 -65.4742 -3.1331 -4.9255 0.2693 7.1250 -0.0000 -0.0000 19.2189 -34.3697 5.2657
10.8287 15.4411 14.4107 276.7600 -73.3171 -268.7840 0.0000 0.0000 0.0000 14.4643 4.2544 -50.3311 18.2836 19.9292 84.9760 0.8654 -18.8181 -19.8862 1.4265 -7.5525 -21.3628 0.0000 0.0000 0.0000 8.7803 -3.3751 -16.9800 -3.3914 -11.3033 33.3096 -0.9722 6.7558 -17.5969 -4.2868 12.5325 -37.6428 -0.8219 0.2468 22.5842 3.1568 -0.3812 8.6458 3.9760 -0.5518 -3.1166 -15.8449 -10.7938 -7.9501 13.5186 -16.9907 26.2998 5.2206 -8.0774 12.6144 0.0000 0.0000 0.0000 -66.2391 5.8521 -22.3818 18.4994 -28.7919 -4.7874 -0.0000 -0.0000 4.7002 13.3540 32.0839 7.1865 -7.1250 0.0000 -0.0000 -22.0942 61.4122 -9.0759 0.0000 0.0000 0.0000 45.5163 -5.1142 -46.4767 -17.3044 27.2573 -4.2258 0.0000 -0.0000 -64.4866 -3.6304 -4.4482 0.2819 7.1250 -0.0000 -0.0000 18.7199 -33.9430 5.3204
10.8091 15.4403 14.4600 277.5010 -73.1616 -269.3310 0.0000 0.0000 0.0000 14.3515 4.3223 -50.8407 18.3187 19.9321 85.0787 0.7882 -19.2041 -19.5324 1.3944 -7.4706 -21.1172 0.0000 0.0000 0.0000 8.8369 -3.3676 -16.6341 -3.2547 -11.0964 32.6058 -0.9492 6.3625 -17.3796 -4.1133 12.3097 -36.8366 -0.8691 0.2608 22.3125 3.1326 -0.3525 8.5258 3.9651 -0.5277 -3.1135 -15.6264 -10.7630 -8.3262 13.4840 -17.0096 26.7200 5.1593 -8.0530 12.8405 -0.0000 0.0000 0.0000 -65.9987 5.7841 -22.2035 18.6613 -28.9956 -4.8656 -0.0000 -0.0000 4.7559 13.2457 31.8510 7.0809 -7.1250 0.0000 -0.0000 -22.0089 61.1722 -8.9133 -0.0000 0.0000 0.0000 45.7723 -5.3869 -47.3348 -17.0892 26.9752 -4.1277 0.0000 -0.0000 -63.9382 -2.9032 -4.5238 0.2292 7.1250 -0.0000 -0.0000 19.3083 -33.9784 5.4872
